<svg height='100px' width='100px'  fill="#000000" xmlns:dc="http://purl.org/dc/elements/1.1/" xmlns:cc="http://creativecommons.org/ns#" xmlns:rdf="http://www.w3.org/1999/02/22-rdf-syntax-ns#" xmlns:svg="http://www.w3.org/2000/svg" xmlns="http://www.w3.org/2000/svg" xmlns:sodipodi="http://sodipodi.sourceforge.net/DTD/sodipodi-0.dtd" xmlns:inkscape="http://www.inkscape.org/namespaces/inkscape" viewBox="0 0 12.7 12.7" version="1.1" x="0px" y="0px"><g transform="translate(0,-284.29998)"><path style="" d="m 9.9362354,286.55788 a 1.2973305,1.2973305 0 0 0 -0.851948,0.37619 l -0.6023513,0.59877 a 0.68002819,0.68002819 0 0 0 -0.1893798,0.36551 1.0956552,1.0956552 0 0 0 -0.00967,0.072 l -0.8239043,1.0153 a 0.55457648,0.55457648 0 0 1 -0.4308222,0.20522 H 3.9965139 a 5.2726329,5.2726329 0 0 1 -3.2057361,-1.08629 0.16175615,0.16175615 0 0 0 -0.21439179,0.24147 13.924659,13.924659 0 0 0 2.51405279,2.04288 0.06073462,0.06073462 0 0 1 0.026528,0.0633 1.5712554,1.5712554 0 0 0 0.04545,0.80653 l -0.8499355,0.29556 a 0.68002819,0.68002819 0 0 0 -0.4573761,0.64216 v 1.22357 l -0.2419652,0.513 a 0.37137704,0.37137704 0 0 0 0.3363936,0.52988 h 0.3302779 a 0.8015857,0.8015857 0 0 0 0.5354698,-0.67841 2.7241875,2.7241875 0 0 1 0.1107896,-0.79685 0.24592532,0.24592532 0 0 1 0.262377,-0.17456 1.5112285,1.5112285 0 0 0 0.6329824,-0.0664 2.2311883,2.2311883 0 0 0 0.061236,0.59775 0.37137704,0.37137704 0 0 0 0.1061896,0.18376 l 1.1827485,1.11435 a 0.37137704,0.37137704 0 0 0 0.2552159,0.10107 h 0.7570228 a 0.18618634,0.18618634 0 0 0 0.1868447,-0.18376 0.70511012,0.70511012 0 0 0 -0.5793779,-0.70292 0.24592532,0.24592532 0 0 1 -0.1654134,-0.1128 5.7165831,5.7165831 0 0 0 -0.3333096,-0.48239 0.24592532,0.24592532 0 0 1 0.00967,-0.30373 3.0333079,3.0333079 0 0 0 0.5247541,-0.98367 5.2321175,5.2321175 0 0 0 1.9116754,0.30271 h 0.3879595 a 5.0857979,5.0857979 0 0 0 0.00967,1.90812 0.37137704,0.37137704 0 0 0 0.2965888,0.29402 2.3428757,2.3428757 0 0 0 0.7952856,0.0107 0.27878169,0.27878169 0 0 0 0.1924639,-0.42369 1.1741058,1.1741058 0 0 0 -0.3619283,-0.36446 0.24592532,0.24592532 0 0 1 -0.094951,-0.30017 3.5273235,3.5273235 0 0 0 0.2562613,-1.12454 h 0.7330302 a 0.72498045,0.72498045 0 0 1 0.5951906,0.41346 v 0.44821 a 0.37137704,0.37137704 0 0 0 0.591139,0.29962 1.2605166,1.2605166 0 0 0 0.338929,-0.37364 2.0577727,2.0577727 0 0 0 -0.114841,-0.91068 3.6878929,3.6878929 0 0 0 -1.4747377,-1.16845 0.24592532,0.24592532 0 0 1 -0.1373174,-0.29557 L 10.027083,289.763 a 1.9162388,1.9162388 0 0 1 1.443584,-1.33075 0.88029921,0.88029921 0 0 0 0.699864,-0.88415 0.37137704,0.37137704 0 0 0 -0.315982,-0.35782 h -0.01019 a 1.6441763,1.6441763 0 0 0 -0.54365,0.009 0.24592532,0.24592532 0 0 1 -0.245023,-0.099 1.2973305,1.2973305 0 0 0 -1.119448,-0.54261 z m 0.07352,0.12453 a 1.1718788,1.1718788 0 0 1 0.934145,0.49107 0.37137704,0.37137704 0 0 0 0.370083,0.14957 1.5187246,1.5187246 0 0 1 0.501781,-0.008 0.24592532,0.24592532 0 0 1 0.209818,0.23684 0.75484756,0.75484756 0 0 1 -0.600313,0.75857 2.0416905,2.0416905 0 0 0 -1.5385344,1.41755 l -0.2751575,0.92701 a 0.37137704,0.37137704 0 0 0 0.2072568,0.44614 h 0.00967 a 3.5624411,3.5624411 0 0 1 1.4134751,1.11385 1.9323209,1.9323209 0 0 1 0.103628,0.81011 1.1350648,1.1350648 0 0 1 -0.290447,0.3124 0.24592532,0.24592532 0 0 1 -0.39154,-0.19806 v -0.47525 a 0.85043216,0.85043216 0 0 0 -0.7161722,-0.512 H 7.7305064 a 5.1066657,5.1066657 0 0 1 -1.8749285,-0.29761 3.0333079,3.0333079 0 0 0 0.1005444,-0.61918 0.06288867,0.06288867 0 1 0 -0.1255824,-0.007 2.9078562,2.9078562 0 0 1 -0.6329563,1.65186 0.37137704,0.37137704 0 0 0 -0.010193,0.4584 5.5911313,5.5911313 0 0 1 0.325678,0.47167 0.37137704,0.37137704 0 0 0 0.2496228,0.17051 0.57965842,0.57965842 0 0 1 0.4757496,0.57784 0.06073462,0.06073462 0 0 1 -0.061262,0.0597 H 5.4201559 A 0.24592532,0.24592532 0 0 1 5.2512142,294.5515 L 4.067943,293.43757 a 0.24592532,0.24592532 0 0 1 -0.069939,-0.1215 2.1057366,2.1057366 0 0 1 -0.00967,-0.95864 0.37137704,0.37137704 0 0 0 -0.1536522,-0.3895 1.4458036,1.4458036 0 0 1 -0.6043899,-1.48953 0.18618634,0.18618634 0 0 0 -0.082694,-0.19448 13.799208,13.799208 0 0 1 -2.49105326,-2.0245 0.03632291,0.03632291 0 0 1 0.0484819,-0.0541 5.3980846,5.3980846 0 0 0 3.28179116,1.11179 h 3.0316457 a 0.68002819,0.68002819 0 0 0 0.5283348,-0.25166 l 0.7233077,-0.89178 a 1.0956552,1.0956552 0 0 0 0.8351165,0.97907 0.37137704,0.37137704 0 0 0 0.381321,-0.13376 1.3754513,1.3754513 0 0 0 0.1015897,-1.53292 0.06290487,0.06290487 0 0 0 -0.1087248,0.0633 1.2499995,1.2499995 0 0 1 -0.092913,1.39254 0.24592532,0.24592532 0 0 1 -0.2516614,0.0888 0.97020349,0.97020349 0 0 1 -0.7289268,-1.10975 0.55457648,0.55457648 0 0 1 0.1551681,-0.29813 l 0.6023512,-0.59877 a 1.1718788,1.1718788 0 0 1 0.8463546,-0.341 z m -6.8039786,4.69425 a 1.5712554,1.5712554 0 0 0 0.5676429,0.69422 0.24592533,0.24592533 0 0 1 0.1015636,0.2578 2.2311883,2.2311883 0 0 0 -0.044405,0.28227 1.3857768,1.3857768 0 0 1 -0.6283825,0.0771 0.37137704,0.37137704 0 0 0 -0.3961139,0.26441 v 0 a 2.8496393,2.8496393 0 0 0 -0.1163826,0.82592 0.67613399,0.67613399 0 0 1 -0.4313449,0.55897 H 1.9500302 a 0.24592533,0.24592533 0 0 1 -0.2230688,-0.35069 l 0.2542227,-0.53853 v -1.25167 a 0.55457648,0.55457648 0 0 1 0.3726439,-0.52373 z m 5.0418529,0.90046 h 0.8361358 a 3.4018718,3.4018718 0 0 1 -0.2465388,1.07708 0.37137704,0.37137704 0 0 0 0.1439297,0.4533 1.0486541,1.0486541 0 0 1 0.3226201,0.32515 0.15332997,0.15332997 0 0 1 -0.1061636,0.23329 v 0 a 2.2174241,2.2174241 0 0 1 -0.752449,-0.01 0.24592532,0.24592532 0 0 1 -0.1965149,-0.195 4.9603462,4.9603462 0 0 1 0,-1.88413 z" fill="#000000" stroke="none"></path><path style="" d="m 10.491505,287.52824 a 0.13588155,0.13588155 0 1 0 -0.271746,0 0.13588155,0.13588155 0 1 0 0.271746,0 z" fill="#000000" stroke="none"></path></g></svg>
