<?xml version="1.0" encoding="utf-8"?>
<!-- Generator: Adobe Illustrator 25.0.1, SVG Export Plug-In . SVG Version: 6.00 Build 0)  -->
<svg version="1.1" id="Layer_1" xmlns="http://www.w3.org/2000/svg" xmlns:xlink="http://www.w3.org/1999/xlink" x="0px" y="0px"
	 viewBox="0 0 500 500" style="enable-background:new 0 0 500 500;" xml:space="preserve">
<style type="text/css">
	.st0{fill:#5E97F6;stroke:#DCE0DF;stroke-linejoin:round;}
	.st1{fill:#2A56C6;stroke:#DCE0DF;stroke-linejoin:round;}
	.st2{fill:#00796B;stroke:#DCE0DF;stroke-linejoin:round;}
	.st3{fill:#3367D6;stroke:#DCE0DF;stroke-linejoin:round;}
	.st4{fill:#26A69A;stroke:#DCE0DF;stroke-linejoin:round;}
	.st5{fill:#9C27B0;stroke:#DCE0DF;stroke-linejoin:round;}
	.st6{fill:#6A1B9A;stroke:#DCE0DF;stroke-linejoin:round;}
	.st7{fill:#00695C;stroke:#DCE0DF;stroke-linejoin:round;}
	.st8{fill:#EA80FC;stroke:#DCE0DF;stroke-linejoin:round;}
	.st9{fill:#A55EEA;stroke:#DCE0DF;stroke-linejoin:round;}
	.st10{fill:#20BF6B;stroke:#DCE0DF;stroke-linejoin:round;}
	.st11{fill:#4B7BEC;stroke:#DCE0DF;stroke-linejoin:round;}
</style>
<polygon class="st0" points="-594,188.4 -619,231.7 -569,231.7 -544,188.4 "/>
<polygon class="st0" points="-644,275 -619,231.7 -569,231.7 -594,275 "/>
<polygon class="st0" points="-519,231.7 -569,231.7 -594,275 -544,275 "/>
<polygon class="st0" points="-494,188.4 -519,231.7 -469,231.7 -444,188.4 "/>
<polygon class="st0" points="-469,145.1 -494,188.4 -444,188.4 -419,145.1 "/>
<polygon class="st0" points="-444,101.8 -469,145.1 -419,145.1 -394,101.8 "/>
<polygon class="st0" points="-419,58.5 -444,101.8 -394,101.8 -369,58.5 "/>
<polygon class="st1" points="-644,275 -619,318.3 -569,318.3 -594,275 "/>
<polygon class="st1" points="-519,318.3 -569,318.3 -594,275 -544,275 "/>
<polygon class="st1" points="-469,318.3 -519,318.3 -544,275 -494,275 "/>
<polygon class="st2" points="-444,275 -469,231.7 -494,275 -469,318.3 "/>
<polygon class="st2" points="-394,188.4 -419,145.1 -444,188.4 "/>
<polygon class="st2" points="-394,101.8 -419,145.1 -394,188.4 -369,145.1 "/>
<polygon class="st3" points="-519,231.7 -544,188.4 -569,231.7 "/>
<polygon class="st4" points="-394,188.4 -444,188.4 -469,231.7 -419,231.7 "/>
<polygon class="st4" points="-344,188.4 -394,188.4 -419,231.7 -369,231.7 "/>
<polygon class="st5" points="-294,101.8 -319,58.5 -344,101.8 -319,145.1 "/>
<polygon class="st5" points="-269,145.1 -294,101.8 -319,145.1 -294,188.4 "/>
<polygon class="st5" points="-244,188.4 -269,145.1 -294,188.4 -269,231.7 "/>
<polygon class="st5" points="-219,231.7 -244,188.4 -269,231.7 -244,275 "/>
<polygon class="st5" points="-194,275 -219,231.7 -244,275 -219,318.3 "/>
<polygon class="st5" points="-219,58.5 -244,101.8 -219,145.1 -194,101.8 "/>
<polygon class="st5" points="-269,145.1 -244,101.8 -219,145.1 -244,188.4 "/>
<polygon class="st5" points="-294,188.4 -319,231.7 -294,275 -269,231.7 "/>
<polygon class="st5" points="-319,318.3 -344,275 -319,231.7 -294,275 "/>
<polygon class="st6" points="-369,318.3 -394,275 -344,275 -319,318.3 "/>
<polygon class="st7" points="-419,231.7 -469,231.7 -444,275 -394,275 "/>
<polygon class="st7" points="-369,231.7 -419,231.7 -394,275 "/>
<polygon class="st7" points="-369,145.1 -344,188.4 -294,188.4 -319,145.1 "/>
<polygon class="st7" points="-344,101.8 -394,101.8 -369,145.1 -319,145.1 "/>
<polygon class="st7" points="-269,231.7 -294,275 -244,275 "/>
<polygon class="st8" points="-319,58.5 -369,58.5 -394,101.8 -344,101.8 "/>
<polygon class="st8" points="-319,231.7 -369,231.7 -394,275 -344,275 "/>
<polygon class="st8" points="-294,188.4 -344,188.4 -369,231.7 -319,231.7 "/>
<polygon class="st8" points="-219,58.5 -269,58.5 -294,101.8 -244,101.8 "/>
<polygon class="st8" points="-269,145.1 -294,101.8 -244,101.8 "/>
<g>
	<polygon class="st9" points="275,141.7 250,98.5 200,98.5 225,141.7 	"/>
	<polygon class="st9" points="150,98.5 200,98.5 225,141.7 175,141.7 	"/>
	<polygon class="st9" points="100,98.5 150,98.5 175,141.7 125,141.7 	"/>
	<polygon class="st9" points="425,141.7 400,98.5 350,98.5 375,141.7 	"/>
	<polygon class="st9" points="300,98.5 350,98.5 375,141.7 325,141.7 	"/>
	<polygon class="st9" points="250,98.5 300,98.5 325,141.7 275,141.7 	"/>
	<polygon class="st9" points="125,141.7 175,141.7 200,185.1 150,185.1 	"/>
	<polygon class="st9" points="150,185.1 200,185.1 225,228.3 175,228.3 	"/>
	<polygon class="st9" points="175,228.3 225,228.3 250,271.6 200,271.6 	"/>
	<polygon class="st9" points="225,315 200,271.6 250,271.6 	"/>
</g>
<g>
	<polygon class="st10" points="350,185.1 400,185.1 425,141.8 375,141.8 	"/>
	<polygon class="st10" points="300,185.1 350,185.1 375,141.8 325,141.8 	"/>
	<polygon class="st10" points="250,185.1 300,185.1 325,141.8 275,141.8 	"/>
	<polygon class="st10" points="200,185.1 250,185.1 275,141.8 225,141.8 	"/>
	<polygon class="st10" points="200,185.1 175,141.7 225,141.7 	"/>
	<polygon class="st10" points="400,185 350,185 325,228.3 375,228.3 	"/>
	<polygon class="st10" points="375,228.3 325,228.3 300,271.6 350,271.6 	"/>
	<polygon class="st10" points="350,271.7 300,271.7 275,315 325,315 	"/>
	<polygon class="st10" points="325,315 275,315 250,358.3 300,358.3 	"/>
	<polygon class="st10" points="300,358.3 250,358.3 225,401.6 275,401.6 	"/>
</g>
<g>
	<polygon class="st11" points="100,185.1 75,141.7 100,98.4 125,141.7 	"/>
	<polygon class="st11" points="125,228.4 100,185.1 125,141.7 150,185 	"/>
	<polygon class="st11" points="150,271.7 125,228.4 150,185.1 175,228.4 	"/>
	<polygon class="st11" points="175,315 150,271.7 175,228.4 200,271.7 	"/>
	<polygon class="st11" points="200,358.3 175,315 200,271.6 225,314.9 	"/>
	<polygon class="st11" points="225,401.6 200,358.3 225,315 250,358.3 	"/>
	<polygon class="st11" points="325,228.4 300,185.1 350,185.1 	"/>
	<polygon class="st11" points="250.2,358.2 225.2,315 250.2,271.6 275.2,315 	"/>
	<polygon class="st11" points="275,315 250,271.7 275,228.4 300,271.7 	"/>
	<polygon class="st11" points="300,271.7 275,228.4 300,185.1 325,228.4 	"/>
</g>
<polygon class="st0" points="-469,231.7 -519,231.7 -544,275 -494,275 "/>
</svg>
